<svg height="297mm" viewBox="0 0 744.09448819 1052.3622047" width="210mm" xmlns="http://www.w3.org/2000/svg" xmlns:xlink="http://www.w3.org/1999/xlink"><linearGradient id="a" gradientUnits="userSpaceOnUse" x1="235.60536" x2="508.16843" y1="703.11188" y2="378.80804"><stop offset="0" stop-color="#4e505d"/><stop offset="1" stop-color="#7a859c"/></linearGradient><path d="m286.70273 341.51442c-33.78488 0-71.78947 21.12141-71.78947 38.01388 0 16.89241 6.28754 21.70314 16.4319 22.89447 12.58289 1.47769 42.68804 6.65783 46.91113 2.43472.83291-.83289 1.85146-1.26227 2.91568-1.50291.2293 3.52731 13.84691 55.325 13.84691 85.08531 0 7.76089-.46786 16.49814-1.17226 25.22903-59.05992 29.72011-67.51117 190.22958-67.51117 190.22958h25.64982s10.25994-71.81953 61.5596-71.81953c51.29968 0 61.55961 71.81953 61.55961 71.81953h25.64983s-8.45126-160.50947-67.51118-190.22958c-.7046-8.73089-1.17225-17.46814-1.17225-25.22903 0-28.10584-7.41009-73.25151-6.87338-81.63858.75537-3.16716 3.73729-16.04675 3.73729-27.27301 0-12.66933-8.44721-38.01388-42.23206-38.01388zm61.02856 174.54911c10.97808 9.02746 19.77791 21.99634 26.89225 37.03196 9.35983 19.78135 16.02094 42.94582 20.82044 65.10652 1.76819 8.16402 3.205 16.07269 4.49877 23.74615 26.04248 16.37027 38.00381 61.30909 38.00381 61.30909h25.64984s-20.51868-159.02798-72.44072-175.75148c-16.59011-5.34347-31.05548-8.89747-43.42439-11.44224zm88.01099 57.77226c6.36229 14.55936 11.66909 30.65868 16.05119 46.44025 5.30367 19.10041 9.19599 37.53039 11.94319 52.23148 13.85804 17.1742 27.79498 29.91324 39.61698 31.39098 41.03974 5.12998 61.55962-35.90976 61.55962-35.90976s-30.7798 25.64982-51.29968 20.51986c-15.2517-3.81294-55.87498-75.79177-77.8713-114.67281zm-122.19741 63.37315c-11.52113 0-20.67618 3.93125-28.02443 9.96937-3.02305 12.35445-10.29835 28.59873-10.29835 57.12236l22.93288-.40217s12.98042-45.27724 31.18056-63.89413c-4.7026-1.78533-9.94315-2.79543-15.79066-2.79543z" fill="url(#a)" fill-rule="evenodd"/><path d="m190 322.36221h400v400h-400z" fill="none"/></svg>